<?xml version="1.0" encoding="UTF-8" standalone="no"?><!DOCTYPE svg PUBLIC "-//W3C//DTD SVG 1.1//EN" "http://www.w3.org/Graphics/SVG/1.1/DTD/svg11.dtd"><svg width="100%" height="100%" viewBox="0 0 137 116" version="1.1" xmlns="http://www.w3.org/2000/svg" xmlns:xlink="http://www.w3.org/1999/xlink" xml:space="preserve" style="fill-rule:evenodd;clip-rule:evenodd;stroke-linejoin:round;stroke-miterlimit:1.41421;"><text x="2.75px" y="89.371px" style="font-family:'CooperHewitt-Book', 'Cooper Hewitt';font-weight:705;font-size:32px;fill:#615e5c;">CityJSON</text><path d="M16.08,39.625l9.6,-17.596l9.6,17.596l0,14.319l-19.2,0l0,-14.319Z" style="fill:#f7c400;"/><path d="M91.878,43.729l14.545,-12.553l14.545,12.553l0,10.215l-29.09,0l0,-10.215Z" style="fill:#027dc2;"/><rect x="42.51" y="14.38" width="13.92" height="39.565" style="fill:#969494;"/><path d="M75.135,44.754c-0.687,0.572 -1.652,0.825 -2.58,0.592c-1.439,-0.362 -2.247,-1.756 -1.805,-3.111c-1.102,0.993 -2.829,0.994 -3.854,0.003c-1.024,-0.99 -0.961,-2.6 0.142,-3.593c-1.467,0.364 -2.931,-0.439 -3.267,-1.794c-0.336,-1.354 0.582,-2.749 2.049,-3.113c-1.438,-0.361 -2.247,-1.755 -1.804,-3.11c0.443,-1.354 1.97,-2.16 3.408,-1.799c-1.024,-0.99 -0.961,-2.6 0.142,-3.592c1.102,-0.993 2.829,-0.994 3.854,-0.003c-0.336,-1.354 0.582,-2.749 2.049,-3.113c1.467,-0.364 2.931,0.44 3.267,1.794c0.443,-1.355 1.97,-2.161 3.408,-1.799c1.439,0.362 2.248,1.755 1.805,3.11c1.103,-0.992 2.829,-0.994 3.854,-0.003c1.024,0.991 0.961,2.601 -0.142,3.593c1.468,-0.364 2.931,0.44 3.267,1.794c0.336,1.354 -0.582,2.749 -2.049,3.113c1.438,0.362 2.247,1.755 1.804,3.11c-0.442,1.355 -1.97,2.161 -3.408,1.799c1.024,0.991 0.961,2.601 -0.141,3.593c-1.103,0.992 -2.83,0.993 -3.854,0.003c0.336,1.354 -0.583,2.749 -2.05,3.113c-0.579,0.143 -1.157,0.105 -1.665,-0.077l0,8.68l-2.43,0l0,-9.19Z" style="fill:#3d756b;"/><path d="M4.574,10.3l0,49.567l5.824,0l0,-3.407l-3.836,0l0,-42.753l3.836,0l0,-3.407l-5.824,0Z" style="fill:#615e5c;fill-rule:nonzero;"/><path d="M132.286,10.3l0,49.567l-5.824,0l0,-3.407l3.836,0l0,-42.753l-3.836,0l0,-3.407l5.824,0Z" style="fill:#615e5c;fill-rule:nonzero;"/></svg>